HIERARCHY
ROOT Hips
{
	OFFSET 0.000000 100.481300 0.000000
	CHANNELS 6 Xposition Yposition Zposition Xrotation Yrotation Zrotation
	JOINT Spine
	{
		OFFSET -0.279200 12.230698 -2.892100
		CHANNELS 3 Xrotation Yrotation Zrotation
		JOINT Spine1
		{
			OFFSET -0.325700 14.269203 -3.374200
			CHANNELS 3 Xrotation Yrotation Zrotation
			JOINT Spine2
			{
				OFFSET -0.372300 16.307602 -0.352600
				CHANNELS 3 Xrotation Yrotation Zrotation
				JOINT Neck
				{
					OFFSET -0.418800 17.814194 8.416900
					CHANNELS 3 Xrotation Yrotation Zrotation
					JOINT Head
					{
						OFFSET 0.000000 7.031097 3.806800
						CHANNELS 3 Xrotation Yrotation Zrotation
						JOINT HeadTop_End
						{
							OFFSET 0.000000 24.646606 12.978600
							CHANNELS 3 Xrotation Yrotation Zrotation
							End Site
							{
								OFFSET 0.000000 27.854965 0.000000
							}
						}
					}
				}
				JOINT LeftShoulder
				{
					OFFSET 16.952999 14.495407 -7.737500
					CHANNELS 3 Xrotation Yrotation Zrotation
					JOINT LeftArm
					{
						OFFSET 9.308998 -2.777710 0.208600
						CHANNELS 3 Xrotation Yrotation Zrotation
						JOINT LeftForeArm
						{
							OFFSET 29.972298 0.000000 0.000000
							CHANNELS 3 Xrotation Yrotation Zrotation
							JOINT LeftHand
							{
								OFFSET 26.026505 0.000000 0.000000
								CHANNELS 3 Xrotation Yrotation Zrotation
								JOINT LeftHandThumb1
								{
									OFFSET 12.240501 -7.147949 9.207150
									CHANNELS 3 Xrotation Yrotation Zrotation
									JOINT LeftHandThumb2
									{
										OFFSET 4.138618 -2.389435 2.389433
										CHANNELS 3 Xrotation Yrotation Zrotation
										JOINT LeftHandThumb3
										{
											OFFSET 2.726913 -1.574387 1.574386
											CHANNELS 3 Xrotation Yrotation Zrotation
											JOINT LeftHandThumb4
											{
												OFFSET 3.941010 -2.275345 2.275342
												CHANNELS 3 Xrotation Yrotation Zrotation
												End Site
												{
													OFFSET -0.005798 5.087799 0.009903
												}
											}
										}
									}
								}
								JOINT LeftHandIndex1
								{
									OFFSET 24.424698 -1.985611 5.953459
									CHANNELS 3 Xrotation Yrotation Zrotation
									JOINT LeftHandIndex2
									{
										OFFSET 6.426697 0.000000 0.000000
										CHANNELS 3 Xrotation Yrotation Zrotation
										JOINT LeftHandIndex3
										{
											OFFSET 5.337898 0.000000 0.000000
											CHANNELS 3 Xrotation Yrotation Zrotation
											JOINT LeftHandIndex4
											{
												OFFSET 4.409401 0.000000 0.000000
												CHANNELS 3 Xrotation Yrotation Zrotation
												End Site
												{
													OFFSET 0.000000 4.409363 0.014373
												}
											}
										}
									}
								}
								JOINT LeftHandMiddle1
								{
									OFFSET 23.810104 0.000000 0.000000
									CHANNELS 3 Xrotation Yrotation Zrotation
									JOINT LeftHandMiddle2
									{
										OFFSET 7.176498 0.000000 0.000000
										CHANNELS 3 Xrotation Yrotation Zrotation
										JOINT LeftHandMiddle3
										{
											OFFSET 6.774902 0.000000 0.000000
											CHANNELS 3 Xrotation Yrotation Zrotation
											JOINT LeftHandMiddle4
											{
												OFFSET 5.403328 0.000000 0.000000
												CHANNELS 3 Xrotation Yrotation Zrotation
												End Site
												{
													OFFSET -0.027702 5.403244 0.017414
												}
											}
										}
									}
								}
								JOINT LeftHandRing1
								{
									OFFSET 22.908401 -0.839279 -6.020567
									CHANNELS 3 Xrotation Yrotation Zrotation
									JOINT LeftHandRing2
									{
										OFFSET 6.337502 0.000000 0.000000
										CHANNELS 3 Xrotation Yrotation Zrotation
										JOINT LeftHandRing3
										{
											OFFSET 5.779297 0.000000 0.000000
											CHANNELS 3 Xrotation Yrotation Zrotation
											JOINT LeftHandRing4
											{
												OFFSET 4.965698 0.000000 0.000000
												CHANNELS 3 Xrotation Yrotation Zrotation
												End Site
												{
													OFFSET 0.000000 4.965668 0.016186
												}
											}
										}
									}
								}
								JOINT LeftHandPinky1
								{
									OFFSET 20.037003 -1.530319 -10.950146
									CHANNELS 3 Xrotation Yrotation Zrotation
									JOINT LeftHandPinky2
									{
										OFFSET 5.254700 0.000000 0.000000
										CHANNELS 3 Xrotation Yrotation Zrotation
										JOINT LeftHandPinky3
										{
											OFFSET 4.810204 0.000000 0.000000
											CHANNELS 3 Xrotation Yrotation Zrotation
											JOINT LeftHandPinky4
											{
												OFFSET 3.647202 0.000000 0.000000
												CHANNELS 3 Xrotation Yrotation Zrotation
												End Site
												{
													OFFSET 0.000000 3.647186 0.011889
												}
											}
										}
									}
								}
							}
						}
					}
				}
				JOINT RightShoulder
				{
					OFFSET -15.141001 14.495407 -7.737500
					CHANNELS 3 Xrotation Yrotation Zrotation
					JOINT RightArm
					{
						OFFSET -9.308998 -2.777710 0.208500
						CHANNELS 3 Xrotation Yrotation Zrotation
						JOINT RightForeArm
						{
							OFFSET -29.972300 0.000000 0.000000
							CHANNELS 3 Xrotation Yrotation Zrotation
							JOINT RightHand
							{
								OFFSET -26.026505 0.000000 0.000000
								CHANNELS 3 Xrotation Yrotation Zrotation
								JOINT RightHandThumb1
								{
									OFFSET -12.240601 -7.148026 9.207092
									CHANNELS 3 Xrotation Yrotation Zrotation
									JOINT RightHandThumb2
									{
										OFFSET -4.138618 -2.389435 2.389433
										CHANNELS 3 Xrotation Yrotation Zrotation
										JOINT RightHandThumb3
										{
											OFFSET -2.726974 -1.574417 1.574421
											CHANNELS 3 Xrotation Yrotation Zrotation
											JOINT RightHandThumb4
											{
												OFFSET -3.941010 -2.275345 2.275343
												CHANNELS 3 Xrotation Yrotation Zrotation
												End Site
												{
													OFFSET 0.005814 5.087799 0.009927
												}
											}
										}
									}
								}
								JOINT RightHandIndex1
								{
									OFFSET -24.424698 -1.985657 5.953444
									CHANNELS 3 Xrotation Yrotation Zrotation
									JOINT RightHandIndex2
									{
										OFFSET -6.426697 0.000000 0.000000
										CHANNELS 3 Xrotation Yrotation Zrotation
										JOINT RightHandIndex3
										{
											OFFSET -5.337898 0.000000 0.000000
											CHANNELS 3 Xrotation Yrotation Zrotation
											JOINT RightHandIndex4
											{
												OFFSET -4.409401 0.000000 0.000000
												CHANNELS 3 Xrotation Yrotation Zrotation
												End Site
												{
													OFFSET 0.000000 4.409363 0.014408
												}
											}
										}
									}
								}
								JOINT RightHandMiddle1
								{
									OFFSET -23.810097 0.000000 0.000000
									CHANNELS 3 Xrotation Yrotation Zrotation
									JOINT RightHandMiddle2
									{
										OFFSET -7.176498 0.000000 0.000000
										CHANNELS 3 Xrotation Yrotation Zrotation
										JOINT RightHandMiddle3
										{
											OFFSET -6.774902 0.000000 0.000000
											CHANNELS 3 Xrotation Yrotation Zrotation
											JOINT RightHandMiddle4
											{
												OFFSET -5.403328 0.000000 0.000000
												CHANNELS 3 Xrotation Yrotation Zrotation
												End Site
												{
													OFFSET 0.027702 5.403244 0.017457
												}
											}
										}
									}
								}
								JOINT RightHandRing1
								{
									OFFSET -22.908302 -0.839325 -6.020576
									CHANNELS 3 Xrotation Yrotation Zrotation
									JOINT RightHandRing2
									{
										OFFSET -6.337502 0.000000 0.000000
										CHANNELS 3 Xrotation Yrotation Zrotation
										JOINT RightHandRing3
										{
											OFFSET -5.779297 0.000000 0.000000
											CHANNELS 3 Xrotation Yrotation Zrotation
											JOINT RightHandRing4
											{
												OFFSET -4.965698 0.000000 0.000000
												CHANNELS 3 Xrotation Yrotation Zrotation
												End Site
												{
													OFFSET 0.000000 4.965668 0.016226
												}
											}
										}
									}
								}
								JOINT RightHandPinky1
								{
									OFFSET -20.037003 -1.530334 -10.950259
									CHANNELS 3 Xrotation Yrotation Zrotation
									JOINT RightHandPinky2
									{
										OFFSET -5.254700 0.000000 0.000000
										CHANNELS 3 Xrotation Yrotation Zrotation
										JOINT RightHandPinky3
										{
											OFFSET -4.810204 0.000000 0.000000
											CHANNELS 3 Xrotation Yrotation Zrotation
											JOINT RightHandPinky4
											{
												OFFSET -3.647202 0.000000 0.000000
												CHANNELS 3 Xrotation Yrotation Zrotation
												End Site
												{
													OFFSET 0.000000 3.647186 0.011917
												}
											}
										}
									}
								}
							}
						}
					}
				}
			}
		}
	}
	JOINT LeftUpLeg
	{
		OFFSET 15.427100 -6.655098 0.678600
		CHANNELS 3 Xrotation Yrotation Zrotation
		JOINT LeftLeg
		{
			OFFSET 4.081073 -39.591068 13.024000
			CHANNELS 3 Xrotation Yrotation Zrotation
			JOINT LeftFoot
			{
				OFFSET -4.081074 -37.707932 -15.979700
				CHANNELS 3 Xrotation Yrotation Zrotation
				JOINT LeftToeBase
				{
					OFFSET 5.346399 -15.068900 20.645000
					CHANNELS 3 Xrotation Yrotation Zrotation
					JOINT LeftToe_End
					{
						OFFSET 2.754700 0.931300 11.300900
						CHANNELS 3 Xrotation Yrotation Zrotation
						End Site
						{
							OFFSET 0.000000 11.669021 0.000000
						}
					}
				}
			}
		}
	}
	JOINT RightUpLeg
	{
		OFFSET -15.569500 -6.655098 0.678600
		CHANNELS 3 Xrotation Yrotation Zrotation
		JOINT RightLeg
		{
			OFFSET -4.081825 -39.591045 13.023800
			CHANNELS 3 Xrotation Yrotation Zrotation
			JOINT RightFoot
			{
				OFFSET 4.081824 -37.707954 -15.979600
				CHANNELS 3 Xrotation Yrotation Zrotation
				JOINT RightToeBase
				{
					OFFSET -5.346400 -15.068900 20.645000
					CHANNELS 3 Xrotation Yrotation Zrotation
					JOINT RightToe_End
					{
						OFFSET -2.754700 0.931300 11.300900
						CHANNELS 3 Xrotation Yrotation Zrotation
						End Site
						{
							OFFSET 0.000000 11.669021 0.000000
						}
					}
				}
			}
		}
	}
}
MOTION
Frames: 5
Frame Time: 0.033333
0.766507 210.068970 -2.081563 3.552848 -5.543211 5.563253 4.606435 -0.642246 -3.626905 10.436757 -0.178895 -4.569391 10.422163 -0.272845 -4.588868 -5.809736 2.216812 1.311542 -8.531826 12.725520 0.111295 -0.000002 0.000000 0.000000 0.669789 6.473356 -11.586835 -24.740948 -27.212667 -68.508150 0.000001 -32.557381 -0.000017 -109.936587 2.236923 24.339034 -8.229387 -14.793993 -1.038784 5.497508 7.266660 -2.619612 -0.575601 1.586257 2.542391 -0.000000 0.000000 0.000000 1.690415 4.523578 -40.963739 1.690420 4.523571 -40.963745 1.690413 4.523574 -40.963745 -0.000003 0.000000 -0.000003 1.689156 4.522132 -40.947657 1.691697 4.525043 -40.979827 1.690409 4.523568 -40.963752 0.000000 0.000001 -0.000001 1.690415 4.523578 -40.963739 1.690420 4.523573 -40.963739 1.690407 4.523564 -40.963745 -0.000002 -0.000000 -0.000003 4.356795 7.590934 -40.734818 1.707367 0.455889 -41.353831 1.690412 4.523569 -40.963745 -0.000003 0.000001 -0.000000 0.980740 0.411944 11.911264 18.339299 64.675567 23.457930 -0.000231 77.183139 0.000221 -24.985529 -11.885329 10.528895 3.051196 -12.976113 -5.960133 6.398165 -11.425313 -4.739916 1.585491 -6.357637 -3.257193 -0.000002 0.000001 -0.000001 1.026223 8.593785 -6.719227 6.954347 -6.948220 90.050498 6.862102 -6.947698 89.288085 -0.000000 0.000000 -0.000000 6.012606 -6.885243 82.242438 6.012599 -6.885252 82.242438 0.958077 -3.527207 30.383772 -0.000000 -0.000002 -0.000000 6.012600 -6.885245 82.242431 6.012601 -6.885259 82.242431 0.958076 -3.527201 30.383769 0.000001 -0.000001 0.000000 6.012605 -6.885243 82.242438 6.012607 -6.885259 82.242438 0.958076 -3.527201 30.383769 0.000001 0.000000 -0.000000 -25.475666 15.084777 4.291464 29.371364 -1.978723 -0.004266 -14.122635 1.197038 -3.408328 -0.000001 0.000001 -0.000002 -0.000000 -0.000000 0.000000 -6.984281 -10.108117 -13.011148 28.568060 9.520447 0.735293 -33.924546 1.084677 7.009950 -0.000001 0.000001 -0.000001 -0.000001 0.000000 -0.000000 
0.773149 209.834457 -1.487758 3.670155 -4.972612 5.309809 4.706002 -0.919457 -3.445112 10.643655 -0.708682 -4.293753 10.623475 -0.803189 -4.317609 -5.713250 2.507691 0.765261 -8.957581 13.417489 -0.081076 0.000001 0.000000 -0.000000 0.705460 6.936678 -11.956984 -23.670347 -26.637195 -67.443713 0.000003 -34.308320 0.000004 -110.050166 2.455073 25.839857 -8.229388 -14.793995 -1.038784 5.497508 7.266660 -2.619611 -0.575601 1.586257 2.542391 -0.000000 0.000000 0.000000 1.690414 4.523576 -40.963739 1.690420 4.523571 -40.963742 1.690412 4.523572 -40.963745 0.000001 -0.000000 -0.000001 1.689157 4.522133 -40.947660 1.691699 4.525043 -40.979827 1.690409 4.523566 -40.963756 -0.000004 -0.000001 0.000006 1.690414 4.523576 -40.963735 1.690420 4.523573 -40.963742 1.690406 4.523564 -40.963749 -0.000000 -0.000001 0.000002 4.356797 7.590934 -40.734825 1.707367 0.455890 -41.353835 1.690412 4.523573 -40.963745 0.000001 -0.000000 0.000002 0.923461 1.155027 9.769788 17.630130 66.158367 24.405272 0.000029 77.049588 -0.000039 -27.154780 -11.902566 6.994773 3.051194 -12.976113 -5.960129 6.398167 -11.425316 -4.739917 1.585490 -6.357639 -3.257192 -0.000002 0.000001 -0.000001 1.026222 8.593787 -6.719225 6.954347 -6.948221 90.050498 6.862099 -6.947700 89.288092 0.000002 0.000002 -0.000001 6.012604 -6.885240 82.242438 6.012597 -6.885251 82.242438 0.958079 -3.527208 30.383772 0.000001 -0.000002 0.000000 6.012599 -6.885241 82.242431 6.012603 -6.885259 82.242431 0.958077 -3.527203 30.383772 0.000001 -0.000001 0.000000 6.012603 -6.885240 82.242438 6.012600 -6.885258 82.242438 0.958074 -3.527198 30.383769 0.000000 0.000003 -0.000001 -25.817630 15.123620 4.543930 30.449841 -2.214743 -0.023662 -15.183271 1.221746 -3.113535 -0.000003 0.000000 -0.000001 -0.000000 0.000000 -0.000000 -5.922103 -10.064960 -12.532837 28.020469 9.547576 0.734927 -34.915736 0.182909 6.847181 0.000009 0.000002 -0.000001 0.000000 -0.000001 0.000000 
0.895436 209.360062 -0.931476 4.203903 -4.363607 5.074887 4.712524 -1.163095 -3.300299 10.674381 -1.163721 -4.106926 10.646923 -1.262987 -4.138602 -5.675602 2.702482 0.549902 -9.387211 14.153138 -0.439470 -0.000001 0.000001 -0.000001 0.674069 6.926994 -11.605361 -21.855736 -25.517025 -66.449462 -0.000011 -36.962873 -0.000022 -110.242668 2.607928 27.635133 -8.229388 -14.793995 -1.038784 5.497507 7.266660 -2.619612 -0.575601 1.586257 2.542391 0.000000 -0.000000 0.000000 1.690415 4.523578 -40.963739 1.690422 4.523571 -40.963745 1.690412 4.523572 -40.963745 -0.000001 -0.000000 0.000001 1.689157 4.522133 -40.947667 1.691698 4.525043 -40.979827 1.690409 4.523569 -40.963749 0.000000 -0.000001 -0.000001 1.690415 4.523578 -40.963735 1.690420 4.523572 -40.963742 1.690407 4.523564 -40.963745 0.000001 -0.000000 0.000004 4.356795 7.590934 -40.734818 1.707369 0.455891 -41.353835 1.690412 4.523572 -40.963745 -0.000001 0.000001 -0.000003 0.850203 1.493861 7.724132 17.691974 67.696484 24.405869 -0.000130 77.140696 0.000151 -29.773208 -11.201573 4.273804 3.051196 -12.976112 -5.960130 6.398165 -11.425318 -4.739911 1.585492 -6.357635 -3.257193 0.000000 0.000003 -0.000002 1.026221 8.593784 -6.719229 6.954342 -6.948221 90.050491 6.862108 -6.947697 89.288085 0.000001 0.000003 -0.000001 6.012601 -6.885239 82.242438 6.012610 -6.885254 82.242438 0.958082 -3.527214 30.383776 -0.000001 0.000001 -0.000000 6.012596 -6.885242 82.242431 6.012615 -6.885258 82.242424 0.958078 -3.527201 30.383765 0.000001 0.000004 -0.000001 6.012601 -6.885240 82.242438 6.012612 -6.885261 82.242438 0.958076 -3.527199 30.383772 -0.000000 0.000002 -0.000000 -26.976133 15.175137 4.807421 32.284884 -1.932006 -0.045363 -15.793639 1.390951 -3.436134 -0.000002 -0.000004 -0.000000 0.000000 -0.000001 -0.000000 -5.383351 -9.930644 -12.073706 27.770490 9.573717 0.735544 -36.325238 -0.916322 6.463317 -0.000005 0.000002 0.000001 0.000000 0.000000 0.000000 
1.070350 208.517395 -0.395590 4.860668 -3.581478 4.800178 4.756929 -1.426492 -3.256229 10.744273 -1.643216 -4.012831 10.705444 -1.752698 -4.058277 -5.827826 2.807153 0.811525 -9.934699 15.129234 -0.858746 0.000001 0.000000 0.000000 0.589377 6.441869 -10.665445 -19.762994 -23.835502 -65.530672 0.000002 -40.205383 -0.000001 -110.555074 2.603726 29.164238 -8.229388 -14.793993 -1.038784 5.497508 7.266661 -2.619612 -0.575601 1.586257 2.542391 -0.000000 0.000000 0.000001 1.690415 4.523577 -40.963739 1.690420 4.523572 -40.963745 1.690414 4.523574 -40.963745 0.000001 0.000001 -0.000004 1.689157 4.522132 -40.947657 1.691696 4.525043 -40.979824 1.690412 4.523566 -40.963749 0.000000 0.000000 0.000001 1.690415 4.523577 -40.963739 1.690420 4.523574 -40.963745 1.690406 4.523566 -40.963745 0.000001 0.000000 -0.000000 4.356795 7.590934 -40.734814 1.707367 0.455890 -41.353835 1.690414 4.523571 -40.963742 -0.000000 0.000000 -0.000000 0.755390 1.391754 5.895982 16.412367 69.400528 25.313782 -0.000111 76.910006 0.000116 -31.697265 -10.717982 4.214409 3.051197 -12.976105 -5.960136 6.398166 -11.425317 -4.739913 1.585489 -6.357634 -3.257194 -0.000002 -0.000002 -0.000001 1.026223 8.593788 -6.719226 6.954345 -6.948223 90.050491 6.862098 -6.947700 89.288092 -0.000002 0.000000 -0.000001 6.012606 -6.885238 82.242438 6.012600 -6.885254 82.242438 0.958081 -3.527206 30.383769 -0.000000 -0.000002 0.000000 6.012599 -6.885242 82.242431 6.012605 -6.885258 82.242431 0.958077 -3.527207 30.383765 0.000000 -0.000001 0.000000 6.012605 -6.885239 82.242438 6.012607 -6.885261 82.242444 0.958072 -3.527200 30.383769 -0.000001 -0.000001 -0.000000 -28.742963 15.429650 4.789744 35.004282 -1.610372 -0.060415 -15.936990 1.532046 -3.670501 -0.000004 -0.000000 -0.000001 0.000000 0.000000 0.000000 -5.233294 -9.584050 -11.746342 28.417926 8.685975 0.734625 -38.177134 -1.683142 6.381487 0.000010 0.000004 -0.000002 -0.000001 -0.000000 0.000000 
1.220155 207.362213 0.097915 5.376845 -2.701691 4.480508 5.004627 -1.778567 -3.396466 11.138160 -2.265445 -3.998205 11.081079 -2.391472 -4.067612 -6.278685 2.891160 1.403530 -10.947916 16.412560 -0.997428 -0.000001 -0.000000 -0.000000 0.496778 5.756928 -9.557919 -18.426237 -21.558374 -64.708468 0.000017 -43.352286 0.000027 -110.697812 2.357213 30.223775 -8.229388 -14.793995 -1.038784 5.497508 7.266660 -2.619613 -0.575601 1.586257 2.542391 -0.000000 -0.000000 -0.000000 1.690415 4.523576 -40.963735 1.690420 4.523570 -40.963745 1.690412 4.523574 -40.963745 0.000001 0.000000 -0.000002 1.689157 4.522132 -40.947664 1.691696 4.525041 -40.979824 1.690409 4.523566 -40.963752 -0.000002 0.000001 -0.000001 1.690415 4.523576 -40.963739 1.690422 4.523573 -40.963745 1.690403 4.523566 -40.963749 -0.000001 0.000001 -0.000003 4.356795 7.590932 -40.734818 1.707367 0.455890 -41.353835 1.690412 4.523573 -40.963745 -0.000000 0.000001 0.000000 0.652349 1.132157 4.119476 11.241464 71.631308 29.638499 -0.000033 75.744940 0.000044 -32.637741 -10.789959 5.757099 3.051197 -12.976111 -5.960129 6.398166 -11.425317 -4.739914 1.585489 -6.357633 -3.257193 -0.000000 0.000000 -0.000001 1.026224 8.593786 -6.719225 6.954345 -6.948221 90.050498 6.862102 -6.947697 89.288092 0.000001 0.000003 -0.000000 6.012605 -6.885238 82.242438 6.012597 -6.885251 82.242438 0.958078 -3.527204 30.383776 0.000000 -0.000002 0.000000 6.012602 -6.885244 82.242431 6.012603 -6.885258 82.242431 0.958078 -3.527206 30.383769 0.000001 0.000001 -0.000001 6.012604 -6.885239 82.242438 6.012604 -6.885260 82.242438 0.958076 -3.527201 30.383769 0.000000 0.000003 -0.000001 -30.554906 15.742864 4.343892 38.089178 -1.230609 -0.043625 -16.216881 1.427968 -2.829422 -0.000002 0.000001 -0.000000 0.000000 -0.000001 -0.000000 -5.618867 -8.888118 -11.576460 30.552785 6.873483 0.716397 -39.911333 -1.927061 6.677858 -0.000000 -0.000001 0.000001 0.000001 0.000001 -0.000000 
